<svg width="150" height="150" viewBox="0 0 150 150" fill="none" xmlns="http://www.w3.org/2000/svg">
    <circle cx="75.095" cy="75.095" r="43.095" fill="#E5E5E5"/>
    <path d="M75 0L89.6289 25.3378H60.3712L75 0Z" fill="#E5E5E5"/>
    <path d="M150 75L124.662 89.6288L124.662 60.3712L150 75Z" fill="#E5E5E5"/>
    <path d="M74.3244 150L59.6956 124.662H88.9532L74.3244 150Z" fill="#E5E5E5"/>
    <path d="M7.38368e-07 75L25.3378 60.3712L25.3378 89.6288L7.38368e-07 75Z" fill="#E5E5E5"/>
    <path d="M22.137 22.3902L29.2749 50.7637L50.2782 30.3953L22.137 22.3902Z" fill="#E5E5E5"/>
    <path d="M127.863 128.285L120.725 99.9119L99.7218 120.28L127.863 128.285Z" fill="#E5E5E5"/>
    <path d="M127.863 22.3902L120.725 50.7637L99.7218 30.3953L127.863 22.3902Z" fill="#E5E5E5"/>
    <path d="M22.137 128.285L29.2749 99.9119L50.2782 120.28L22.137 128.285Z" fill="#E5E5E5"/>
</svg>
